<mxfile host="app.diagrams.net" modified="2022-08-27T04:55:06.969Z" agent="5.0 (Windows NT 10.0; Win64; x64) AppleWebKit/537.36 (KHTML, like Gecko) Chrome/104.0.0.0 Safari/537.36" etag="bnM31QvTXBhSRqsx-Do5" version="20.2.3" type="github">
  <diagram id="KKJjMc4QPHrHP3sVOsFm" name="Page-1">
    <mxGraphModel dx="1673" dy="2034" grid="1" gridSize="10" guides="1" tooltips="1" connect="1" arrows="1" fold="1" page="1" pageScale="1" pageWidth="850" pageHeight="1100" math="0" shadow="0">
      <root>
        <mxCell id="0" />
        <mxCell id="1" parent="0" />
        <mxCell id="3235PmEpduEB_uYFdb9a-5" value="" style="edgeStyle=orthogonalEdgeStyle;rounded=0;orthogonalLoop=1;jettySize=auto;html=1;" edge="1" parent="1" source="3235PmEpduEB_uYFdb9a-1" target="3235PmEpduEB_uYFdb9a-4">
          <mxGeometry relative="1" as="geometry" />
        </mxCell>
        <mxCell id="3235PmEpduEB_uYFdb9a-1" value="Request API" style="rounded=0;whiteSpace=wrap;html=1;" vertex="1" parent="1">
          <mxGeometry x="365" y="70" width="120" height="60" as="geometry" />
        </mxCell>
        <mxCell id="3235PmEpduEB_uYFdb9a-3" style="edgeStyle=orthogonalEdgeStyle;rounded=0;orthogonalLoop=1;jettySize=auto;html=1;entryX=0;entryY=0.5;entryDx=0;entryDy=0;" edge="1" parent="1" source="3235PmEpduEB_uYFdb9a-2" target="3235PmEpduEB_uYFdb9a-1">
          <mxGeometry relative="1" as="geometry" />
        </mxCell>
        <mxCell id="3235PmEpduEB_uYFdb9a-2" value="Actor" style="shape=umlActor;verticalLabelPosition=bottom;verticalAlign=top;html=1;outlineConnect=0;" vertex="1" parent="1">
          <mxGeometry x="180" y="70" width="30" height="60" as="geometry" />
        </mxCell>
        <mxCell id="3235PmEpduEB_uYFdb9a-8" style="edgeStyle=orthogonalEdgeStyle;rounded=0;orthogonalLoop=1;jettySize=auto;html=1;entryX=0;entryY=0.5;entryDx=0;entryDy=0;" edge="1" parent="1" source="3235PmEpduEB_uYFdb9a-4" target="3235PmEpduEB_uYFdb9a-7">
          <mxGeometry relative="1" as="geometry" />
        </mxCell>
        <mxCell id="3235PmEpduEB_uYFdb9a-10" value="" style="edgeStyle=orthogonalEdgeStyle;rounded=0;orthogonalLoop=1;jettySize=auto;html=1;" edge="1" parent="1" source="3235PmEpduEB_uYFdb9a-4" target="3235PmEpduEB_uYFdb9a-9">
          <mxGeometry relative="1" as="geometry" />
        </mxCell>
        <mxCell id="3235PmEpduEB_uYFdb9a-4" value="&lt;div style=&quot;color: rgb(212, 212, 212); background-color: rgb(30, 30, 30); font-family: Consolas, &amp;quot;Courier New&amp;quot;, monospace; font-size: 14px; line-height: 19px;&quot;&gt;&lt;span style=&quot;color: #9cdcfe;&quot;&gt;user_access&lt;/span&gt;: &lt;span style=&quot;color: #4ec9b0;&quot;&gt;dict&lt;/span&gt; = &lt;span style=&quot;color: #dcdcaa;&quot;&gt;Depends&lt;/span&gt;(&lt;span style=&quot;color: #dcdcaa;&quot;&gt;valid_access_token&lt;/span&gt;)&lt;/div&gt;" style="whiteSpace=wrap;html=1;rounded=0;" vertex="1" parent="1">
          <mxGeometry x="303" y="170" width="245" height="60" as="geometry" />
        </mxCell>
        <mxCell id="3235PmEpduEB_uYFdb9a-7" value="&lt;h1&gt;Function valid_access_token&lt;/h1&gt;" style="text;html=1;strokeColor=none;fillColor=none;spacing=5;spacingTop=-20;whiteSpace=wrap;overflow=hidden;rounded=0;" vertex="1" parent="1">
          <mxGeometry x="710" y="-10" width="190" height="120" as="geometry" />
        </mxCell>
        <mxCell id="3235PmEpduEB_uYFdb9a-12" value="" style="edgeStyle=orthogonalEdgeStyle;rounded=0;orthogonalLoop=1;jettySize=auto;html=1;" edge="1" parent="1" source="3235PmEpduEB_uYFdb9a-9" target="3235PmEpduEB_uYFdb9a-11">
          <mxGeometry relative="1" as="geometry" />
        </mxCell>
        <mxCell id="3235PmEpduEB_uYFdb9a-9" value="&lt;div style=&quot;color: rgb(212, 212, 212); background-color: rgb(30, 30, 30); font-family: Consolas, &amp;quot;Courier New&amp;quot;, monospace; font-size: 14px; line-height: 19px;&quot;&gt;&lt;div style=&quot;line-height: 19px;&quot;&gt;&lt;span style=&quot;color: #dcdcaa;&quot;&gt;Call Function&amp;nbsp;&lt;/span&gt;&lt;span style=&quot;color: rgb(220, 220, 170);&quot;&gt;check_has_perm()&lt;/span&gt;&lt;/div&gt;&lt;/div&gt;" style="whiteSpace=wrap;html=1;rounded=0;" vertex="1" parent="1">
          <mxGeometry x="303" y="310" width="245" height="60" as="geometry" />
        </mxCell>
        <mxCell id="3235PmEpduEB_uYFdb9a-14" value="" style="edgeStyle=orthogonalEdgeStyle;rounded=0;orthogonalLoop=1;jettySize=auto;html=1;" edge="1" parent="1" source="3235PmEpduEB_uYFdb9a-11" target="3235PmEpduEB_uYFdb9a-13">
          <mxGeometry relative="1" as="geometry" />
        </mxCell>
        <mxCell id="3235PmEpduEB_uYFdb9a-11" value="&lt;div style=&quot;background-color: rgb(30, 30, 30); font-family: Consolas, &amp;quot;Courier New&amp;quot;, monospace; font-size: 14px; line-height: 19px;&quot;&gt;&lt;div style=&quot;line-height: 19px;&quot;&gt;&lt;font color=&quot;#dcdcaa&quot;&gt;Call Request to Auth Service&lt;/font&gt;&lt;/div&gt;&lt;div style=&quot;line-height: 19px;&quot;&gt;&lt;font color=&quot;#dcdcaa&quot;&gt;Enpoint:&amp;nbsp;&lt;/font&gt;&lt;span style=&quot;color: rgb(206, 145, 120);&quot;&gt;check-permission&lt;/span&gt;&lt;/div&gt;&lt;/div&gt;" style="whiteSpace=wrap;html=1;rounded=0;" vertex="1" parent="1">
          <mxGeometry x="303" y="450" width="245" height="60" as="geometry" />
        </mxCell>
        <mxCell id="3235PmEpduEB_uYFdb9a-16" value="" style="edgeStyle=orthogonalEdgeStyle;rounded=0;orthogonalLoop=1;jettySize=auto;html=1;" edge="1" parent="1" source="3235PmEpduEB_uYFdb9a-13" target="3235PmEpduEB_uYFdb9a-15">
          <mxGeometry relative="1" as="geometry" />
        </mxCell>
        <mxCell id="3235PmEpduEB_uYFdb9a-13" value="&lt;div style=&quot;background-color: rgb(30, 30, 30); font-family: Consolas, &amp;quot;Courier New&amp;quot;, monospace; font-size: 14px; line-height: 19px;&quot;&gt;&lt;div style=&quot;line-height: 19px;&quot;&gt;&lt;font color=&quot;#dcdcaa&quot;&gt;Call API and get data form service&lt;/font&gt;&lt;/div&gt;&lt;/div&gt;" style="whiteSpace=wrap;html=1;rounded=0;" vertex="1" parent="1">
          <mxGeometry x="303" y="590" width="245" height="60" as="geometry" />
        </mxCell>
        <mxCell id="3235PmEpduEB_uYFdb9a-15" value="End" style="ellipse;whiteSpace=wrap;html=1;rounded=0;" vertex="1" parent="1">
          <mxGeometry x="365.5" y="730" width="120" height="60" as="geometry" />
        </mxCell>
      </root>
    </mxGraphModel>
  </diagram>
</mxfile>
